# xmcd
#
# Track frame offsets:
#	150
#	21638
#	43329
#	69696
#	87728
#	107908
#	131561
#	157395
#	174738
#	194477
#	214340
#	236681
#	255624
#	272405
#	302026
#
# Disc length: 4338 seconds
#
# Revision: 0
# Processed by: cddbd v1.4PL0 Copyright (c) Steve Scherf et al.
# Submitted via: audiograbber 1.81.01
#
DISCID=f110f00f
DTITLE=Neville Brothers - Master Series
DYEAR=1991
DGENRE=Blues
TTITLE0=Fly Like An Eagle
TTITLE1=Family Groove
TTITLE2=Let My People Go
TTITLE3=Yellow Moon
TTITLE4=Mystery Train
TTITLE5=River Of My Live
TTITLE6=The Ballad Of Hollis Brown
TTITLE7=Warm Your Heart
TTITLE8=These Foolish Things
TTITLE9=Everybody Plays That Fool
TTITLE10=Bird On A Wire
TTITLE11=Fearless
TTITLE12=A Change Is Gonna Come
TTITLE13=With God On Our Side
TTITLE14=Will The Circle Be Unbroken
EXTD=
EXTT0=
EXTT1=
EXTT2=
EXTT3=
EXTT4=
EXTT5=
EXTT6=
EXTT7=
EXTT8=
EXTT9=
EXTT10=
EXTT11=
EXTT12=
EXTT13=
EXTT14=
PLAYORDER=
